<?xml version="1.0" standalone="no"?>
<!DOCTYPE svg PUBLIC "-//W3C//DTD SVG 20010904//EN"
 "http://www.w3.org/TR/2001/REC-SVG-20010904/DTD/svg10.dtd">
<svg version="1.0" xmlns="http://www.w3.org/2000/svg"
 width="479.000000pt" height="479.000000pt" viewBox="0 0 479.000000 479.000000"
 preserveAspectRatio="xMidYMid meet">

<g transform="translate(0.000000,479.000000) scale(0.100000,-0.100000)"
fill="#000000" stroke="none">
<path d="M920 1546 c0 -2 8 -10 18 -17 15 -13 16 -12 3 4 -13 16 -21 21 -21
13z"/>
<path d="M450 1372 c0 -214 -7 -206 170 -210 157 -4 180 4 180 67 0 51 -31 66
-109 51 -115 -22 -121 -16 -122 138 0 64 -3 111 -6 105 -2 -7 -20 -13 -38 -13
-19 0 -37 -5 -40 -10 -4 -6 -11 -8 -16 -4 -5 3 -7 9 -4 14 3 5 1 11 -5 15 -7
4 -10 -48 -10 -153z"/>
<path d="M1349 1500 c0 -23 -1 -23 -9 -5 -8 18 -9 18 -9 -5 -1 -17 -4 -21 -9
-12 -25 38 -52 -163 -33 -235 19 -71 75 -101 153 -84 66 15 99 69 63 105 -11
11 -23 12 -46 6 -57 -17 -69 -1 -69 90 l0 80 28 1 c15 1 36 0 48 0 13 -1 28 8
38 23 12 19 13 26 4 25 -19 -1 -55 -17 -40 -18 7 -1 10 -6 7 -11 -4 -6 -12 -4
-22 5 -8 9 -27 15 -42 13 -19 -2 -31 4 -43 22 l-18 25 -1 -25z"/>
<path d="M2420 1511 c0 -6 6 -11 13 -11 8 0 7 -4 -3 -10 -9 -6 -10 -10 -3 -10
19 0 24 17 8 30 -10 9 -15 9 -15 1z"/>
<path d="M885 1490 c-7 -22 -9 -22 -20 -7 -10 14 -13 3 -18 -66 -11 -130 -8
-232 5 -245 16 -16 70 -15 93 2 21 15 22 31 12 191 -6 110 -14 145 -28 123 -6
-10 -11 -9 -22 6 -14 19 -15 19 -22 -4z"/>
<path d="M1017 1458 c-11 -91 -8 -207 7 -243 18 -43 49 -59 113 -58 68 2 103
25 103 68 0 44 -18 57 -60 45 -22 -6 -38 -6 -46 1 -16 13 -28 99 -19 139 6 28
10 30 50 30 33 0 50 6 65 22 l21 23 -26 8 c-33 11 -67 1 -45 -13 12 -8 10 -10
-7 -10 -13 0 -22 5 -20 13 1 6 -7 12 -18 12 -11 1 -25 4 -32 8 -7 5 -17 -1
-24 -15 l-12 -22 -10 24 c-6 17 -11 20 -14 11 -4 -10 -7 -10 -13 -1 -4 6 -10
-13 -13 -42z"/>
<path d="M1421 1500 c-9 -5 -7 -9 8 -13 12 -3 23 -2 26 3 7 11 -19 20 -34 10z"/>
<path d="M1621 1490 c-1 -20 -3 -22 -11 -10 -8 13 -10 13 -10 1 0 -11 -4 -10
-16 5 -15 18 -15 18 -11 -8 2 -16 0 -28 -4 -28 -12 0 -11 -167 1 -212 6 -20
22 -46 37 -58 35 -27 101 -27 137 1 48 38 24 104 -33 93 -39 -8 -44 3 -50 116
-4 54 -10 94 -16 92 -5 -2 -12 5 -16 15 -6 15 -8 14 -8 -7z"/>
<path d="M2841 1487 c-1 -16 -8 -35 -16 -43 -13 -14 -15 -12 -15 11 0 27 -1
27 -24 11 -23 -15 -25 -15 -29 7 -2 12 -5 -31 -6 -96 -2 -172 24 -217 125
-217 37 0 59 6 78 21 l26 21 30 -25 c20 -17 37 -23 52 -20 47 12 49 18 42 152
-6 116 -15 148 -36 135 -4 -3 -8 0 -8 6 0 6 -4 9 -9 5 -5 -3 -11 0 -14 7 -2 7
-2 3 0 -9 2 -13 -1 -23 -7 -23 -5 0 -10 8 -10 18 -1 38 -17 -14 -23 -71 -8
-81 -27 -107 -78 -107 -37 0 -41 3 -56 38 -11 26 -14 55 -10 102 3 36 2 74 -3
85 -8 18 -9 17 -9 -8z"/>
<path d="M1977 1484 c5 -14 2 -16 -17 -11 -17 4 -20 3 -11 -6 8 -8 17 -8 27
-2 18 12 20 28 5 33 -7 2 -8 -3 -4 -14z"/>
<path d="M2366 1480 c6 -23 6 -24 -11 -10 -17 14 -17 13 -7 -7 21 -38 58 -59
146 -82 97 -26 118 -45 92 -85 -28 -43 -101 -39 -166 9 -40 30 -61 31 -83 7
-38 -41 -11 -102 57 -133 47 -21 154 -25 207 -8 68 23 109 80 109 152 0 51
-35 109 -52 85 -8 -10 -9 -9 -5 4 7 20 -9 34 -48 43 -24 5 -27 4 -15 -5 13
-10 12 -11 -3 -6 -10 3 -21 6 -23 6 -3 0 -2 5 1 10 9 15 -19 12 -51 -5 -16 -8
-31 -11 -34 -7 -3 4 -15 8 -27 10 -13 1 -33 3 -45 5 -17 1 -23 -3 -22 -15 1
-10 -2 -15 -8 -12 -5 3 -6 13 -4 22 3 10 1 24 -5 32 -8 11 -9 9 -3 -10z"/>
<path d="M1810 1463 c-7 -16 -15 -62 -17 -103 -6 -98 20 -152 87 -188 108 -57
299 11 262 93 -17 37 -47 41 -83 11 -59 -50 -159 -29 -159 32 0 12 1 22 3 23
1 0 41 4 90 8 71 6 92 12 112 31 29 27 40 71 25 99 -17 33 -40 26 -41 -11 l-1
-33 -10 28 c-13 36 -21 34 -41 -7 -13 -27 -24 -36 -52 -42 -21 -4 -47 -2 -62
5 -21 10 -24 17 -21 42 4 23 1 29 -9 24 -8 -3 -22 -5 -31 -6 -14 0 -13 -2 3
-9 16 -7 14 -8 -12 -7 -26 2 -32 5 -27 20 8 26 -1 20 -16 -10z m297 -15 c-3
-7 -5 -2 -5 12 0 14 2 19 5 13 2 -7 2 -19 0 -25z"/>
<path d="M1858 1483 c7 -3 16 -2 19 1 4 3 -2 6 -13 5 -11 0 -14 -3 -6 -6z"/>
<path d="M3092 1470 c0 -14 2 -19 5 -12 2 6 2 18 0 25 -3 6 -5 1 -5 -13z"/>
<path d="M2450 1471 c0 -6 9 -9 19 -8 11 0 17 5 15 9 -7 11 -34 10 -34 -1z"/>
<path d="M3171 1472 c-1 -7 4 -23 10 -34 8 -15 8 -19 0 -14 -7 5 -11 -7 -11
-37 0 -24 -3 -78 -6 -118 -7 -85 5 -109 56 -109 53 0 62 20 58 142 -3 104 -2
111 20 128 26 21 28 30 7 30 -8 0 -15 -4 -15 -10 0 -5 -6 -10 -14 -10 -8 0
-16 -6 -19 -12 -3 -10 -7 -10 -20 1 -9 7 -14 17 -11 22 3 5 -6 9 -20 9 -13 0
-27 6 -29 13 -4 9 -6 9 -6 -1z"/>
<path d="M3293 1473 c9 -2 23 -2 30 0 6 3 -1 5 -18 5 -16 0 -22 -2 -12 -5z"/>
<path d="M3672 1468 c-7 -7 -12 -18 -12 -25 0 -7 -11 -13 -25 -13 -15 0 -25 6
-25 15 0 8 -6 12 -12 10 -19 -8 -18 -256 1 -278 18 -22 64 -22 85 1 14 16 16
37 12 131 -2 61 -6 115 -10 118 -11 11 -7 41 7 46 6 3 7 6 2 6 -6 1 -16 -4
-23 -11z"/>
<path d="M3753 1463 c9 -2 23 -2 30 0 6 3 -1 5 -18 5 -16 0 -22 -2 -12 -5z"/>
<path d="M4085 1451 c-3 -11 -13 -21 -21 -21 -8 0 -17 -7 -20 -15 -4 -8 -11
-15 -16 -15 -6 0 -5 6 2 15 10 12 9 16 -6 21 -11 4 -22 9 -26 11 -5 2 -8 -3
-8 -12 0 -9 4 -13 10 -10 5 3 7 0 4 -8 -3 -8 20 -62 50 -120 31 -57 56 -116
56 -130 0 -35 -29 -50 -69 -36 -41 14 -61 -1 -61 -47 0 -68 102 -95 170 -45
39 28 82 107 133 245 26 69 47 130 47 135 0 14 -43 9 -59 -7 -11 -11 -16 -10
-30 3 -16 14 -18 11 -29 -33 -6 -26 -16 -60 -22 -76 -9 -25 -13 -27 -24 -15
-8 8 -21 38 -31 67 -9 29 -23 56 -31 59 -8 3 -14 13 -14 22 0 14 2 14 10 1 5
-8 10 -10 10 -5 0 6 -4 16 -9 24 -7 11 -10 9 -16 -8z"/>
<path d="M3382 1444 c19 -10 25 -19 21 -31 -4 -9 -2 -14 3 -11 5 4 8 -39 6
-104 -4 -123 2 -138 54 -138 55 0 62 23 54 170 -4 69 -7 119 -8 111 -2 -11 -6
-10 -17 5 -10 13 -14 14 -15 5 0 -11 -3 -11 -17 0 -14 12 -16 12 -11 -1 7 -19
-36 -20 -54 -2 -7 7 -19 12 -27 12 -10 -1 -5 -7 11 -16z"/>
<path d="M3695 1441 c-9 -16 9 -20 23 -5 10 12 10 14 -2 14 -8 0 -17 -4 -21
-9z"/>
<path d="M3815 1426 c12 -18 15 -49 14 -130 -1 -120 5 -136 56 -136 50 0 60
21 56 109 -2 42 -4 97 -5 124 0 45 -8 58 -21 38 -3 -6 -17 -6 -36 1 -25 8 -33
8 -40 -3 -7 -11 -9 -10 -9 4 0 9 -7 17 -15 17 -14 0 -14 -3 0 -24z"/>
<path d="M1210 900 c0 -33 4 -60 10 -60 6 0 10 11 10 24 0 20 6 25 33 29 l32
4 -32 1 c-26 2 -33 6 -33 22 0 16 7 20 36 20 21 0 33 4 29 10 -3 6 -24 10 -46
10 l-39 0 0 -60z"/>
<path d="M1351 934 c-26 -33 -26 -45 -3 -74 22 -27 65 -29 92 -5 26 23 25 60
0 85 -28 28 -64 25 -89 -6z m79 -9 c17 -21 4 -62 -22 -71 -16 -5 -27 -1 -40
16 -22 27 -22 34 -2 54 20 20 48 20 64 1z"/>
<path d="M1509 945 c-1 -8 -1 -26 -1 -40 0 -52 2 -65 12 -65 6 0 10 9 10 20 0
11 7 20 15 20 8 0 19 -9 25 -20 6 -11 15 -20 21 -20 6 0 5 9 -2 22 -9 16 -9
23 0 26 6 2 11 16 11 32 0 20 -6 29 -22 34 -40 10 -68 7 -69 -9z m71 -25 c0
-15 -7 -20 -25 -20 -18 0 -25 5 -25 20 0 15 7 20 25 20 18 0 25 -5 25 -20z"/>
<path d="M1737 900 c-14 -33 -21 -60 -16 -60 5 0 12 7 15 15 8 21 61 19 73 -2
5 -10 12 -15 15 -12 8 8 -41 119 -52 119 -5 0 -20 -27 -35 -60z m51 -3 c2 -10
-3 -17 -12 -17 -10 0 -16 9 -16 21 0 24 23 21 28 -4z"/>
<path d="M1950 900 l0 -60 39 0 c44 0 70 22 52 44 -6 7 -9 21 -5 30 10 25 -15
46 -52 46 l-34 0 0 -60z m70 25 c0 -9 -9 -15 -25 -15 -16 0 -25 6 -25 15 0 9
9 15 25 15 16 0 25 -6 25 -15z m6 -46 c8 -13 -13 -29 -38 -29 -11 0 -18 8 -18
20 0 15 7 20 24 20 14 0 28 -5 32 -11z"/>
<path d="M2097 953 c-4 -3 -7 -30 -7 -60 l0 -53 48 1 c44 2 45 2 12 8 -47 8
-55 41 -11 41 17 0 31 5 31 10 0 6 -13 10 -30 10 -20 0 -30 5 -30 15 0 10 11
15 35 15 19 0 35 5 35 10 0 11 -73 14 -83 3z"/>
<path d="M2220 950 c0 -5 9 -10 20 -10 17 0 20 -7 20 -50 0 -27 5 -50 10 -50
6 0 10 23 10 50 0 43 3 50 20 50 11 0 20 5 20 10 0 6 -22 10 -50 10 -27 0 -50
-4 -50 -10z"/>
<path d="M2350 950 c0 -5 9 -10 20 -10 17 0 20 -7 20 -50 0 -27 5 -50 10 -50
6 0 10 23 10 50 0 44 3 50 21 50 11 0 17 5 14 10 -3 6 -26 10 -51 10 -24 0
-44 -4 -44 -10z"/>
<path d="M2490 900 l0 -60 48 2 c43 1 44 2 10 5 -30 3 -38 9 -38 24 0 14 7 19
30 19 17 0 30 5 30 10 0 6 -13 10 -30 10 -20 0 -30 5 -30 15 0 10 11 15 35 15
19 0 35 5 35 10 0 6 -20 10 -45 10 l-45 0 0 -60z"/>
<path d="M2630 900 c0 -33 4 -60 10 -60 6 0 10 9 10 20 0 11 6 20 13 20 7 0
18 -9 25 -20 17 -28 36 -26 21 2 -9 16 -9 23 0 26 17 6 13 59 -5 66 -9 3 -29
6 -45 6 -29 0 -29 0 -29 -60z m70 20 c0 -15 -7 -20 -25 -20 -18 0 -25 5 -25
20 0 15 7 20 25 20 18 0 25 -5 25 -20z"/>
<path d="M2826 938 c34 -107 44 -117 66 -61 l15 38 17 -37 c9 -21 20 -38 25
-38 9 0 41 83 41 107 0 24 -18 4 -25 -27 -10 -45 -23 -45 -36 0 -7 22 -16 40
-20 40 -5 0 -14 -18 -20 -40 -7 -22 -15 -40 -19 -40 -4 0 -12 18 -19 40 -6 22
-16 40 -22 40 -6 0 -7 -9 -3 -22z"/>
<path d="M3051 941 c-12 -12 -21 -31 -21 -43 1 -70 96 -86 121 -21 22 58 -57
107 -100 64z m63 -7 c24 -9 21 -61 -4 -74 -27 -15 -60 4 -60 33 0 38 27 55 64
41z"/>
<path d="M3200 900 c0 -33 4 -60 10 -60 6 0 10 9 10 20 0 11 7 20 15 20 8 0
20 -9 27 -20 7 -11 19 -20 25 -20 11 0 11 4 1 20 -10 15 -10 22 0 32 32 32 1
68 -57 68 l-31 0 0 -60z m77 24 c3 -9 0 -20 -7 -24 -20 -12 -50 1 -50 21 0 24
48 26 57 3z"/>
<path d="M3350 901 l0 -61 43 2 c36 1 38 2 10 5 -32 4 -33 6 -33 53 0 27 -4
52 -10 55 -6 4 -10 -17 -10 -54z"/>
<path d="M3478 954 c-5 -4 -8 -31 -8 -61 l0 -53 39 0 c23 0 46 7 55 16 20 19
21 68 2 83 -18 15 -79 25 -88 15z m70 -26 c30 -30 -5 -89 -44 -74 -14 5 -20
67 -7 79 10 11 38 8 51 -5z"/>
</g>
</svg>
