<svg xmlns="http://www.w3.org/2000/svg"
    width="500.000000pt" height="500.000000pt" viewBox="0 0 500.000000 500.000000"
    preserveAspectRatio="xMidYMid meet">

    <g transform="translate(0.000000,500.000000) scale(0.100000,-0.100000)"
        fill="#000000" stroke="none">
        <path
            d="M1854 3750 c-35 -14 -64 -59 -64 -100 0 -46 25 -79 84 -114 89 -52
65 -116 -45 -116 -38 0 -39 -1 -33 -27 10 -42 12 -43 55 -43 83 0 149 58 149
132 0 45 -21 72 -81 105 -52 30 -71 62 -49 88 14 17 57 19 94 5 21 -8 27 -6
36 10 5 10 10 25 10 33 0 30 -105 48 -156 27z" />
        <path
            d="M3088 3673 l-3 -48 -40 3 c-22 1 -53 -3 -68 -10 -23 -9 -31 -8 -37 1
-4 7 -20 11 -36 9 -22 -2 -28 -8 -26 -23 1 -11 3 -69 3 -130 0 -115 4 -125 47
-125 21 0 22 3 22 93 0 103 7 117 56 117 18 0 35 4 38 9 3 5 15 7 26 4 18 -5
20 -14 20 -99 0 -85 2 -94 22 -108 23 -16 66 -20 106 -10 15 4 22 14 22 30 0
22 -4 24 -36 22 -46 -3 -54 11 -54 95 l0 67 40 0 c38 0 40 2 40 30 0 28 -2 30
-38 30 l-39 0 1 43 c1 40 0 42 -31 45 -31 3 -32 3 -35 -45z" />
        <path
            d="M2175 3620 c-47 -24 -55 -25 -55 -4 0 11 -5 14 -16 10 -9 -3 -23 -6
-32 -6 -15 0 -17 -14 -13 -127 3 -133 7 -143 49 -143 21 0 22 3 22 100 l0 99
30 16 c39 20 67 19 80 -4 5 -11 10 -60 10 -110 0 -89 1 -91 25 -97 14 -4 29
-3 33 1 4 4 7 47 7 97 1 82 3 92 24 109 26 22 61 25 79 7 8 -8 12 -47 12 -109
0 -92 1 -97 23 -103 49 -13 49 -14 45 114 -3 108 -5 122 -26 142 -30 30 -87
30 -130 -1 -30 -21 -34 -22 -45 -8 -11 15 -57 37 -76 37 -4 0 -24 -9 -46 -20z" />
        <path
            d="M2605 3620 c-61 -40 -82 -126 -48 -197 32 -69 122 -95 177 -52 l27
21 6 -21 c4 -15 13 -21 34 -21 l29 0 0 134 c0 113 -2 135 -16 140 -25 10 -34
7 -34 -9 0 -19 -3 -19 -42 5 -42 25 -95 25 -133 0z m134 -66 c44 -55 12 -144
-52 -144 -45 0 -77 34 -77 82 0 78 85 118 129 62z" />
        <path
            d="M3532 3203 c-22 -4 -23 -7 -16 -86 3 -45 9 -233 13 -417 l6 -335 65
0 65 0 6 200 c3 110 6 201 7 202 1 2 26 16 55 33 55 31 110 38 138 17 37 -29
42 -57 43 -257 l1 -195 68 -3 67 -3 0 223 c0 123 -5 239 -10 259 -24 85 -139
132 -241 98 -19 -7 -55 -27 -80 -45 -26 -19 -50 -34 -54 -34 -4 0 -4 79 0 175
l7 175 -58 -1 c-33 -1 -69 -4 -82 -6z" />
        <path
            d="M687 3193 c-2 -5 1 -96 6 -203 5 -126 5 -268 -2 -400 -7 -139 -7
-208 0 -215 6 -6 101 -10 252 -11 133 0 249 -3 257 -7 27 -12 38 7 45 76 l8
69 -79 -7 c-44 -4 -130 -7 -192 -8 -144 -2 -144 -3 -140 138 l3 100 182 3 182
2 6 33 c4 19 5 48 3 66 l-3 33 -185 2 -185 1 -3 94 c-2 64 1 98 10 108 11 13
41 15 198 12 l185 -4 -3 40 c-1 22 -5 50 -7 63 l-5 22 -265 0 c-145 0 -265 -3
-268 -7z" />
        <path
            d="M2628 2793 c2 -224 5 -414 7 -421 4 -9 23 -12 67 -10 l63 3 2 390 c1
215 4 401 5 415 3 24 1 25 -72 28 l-76 3 4 -408z" />
        <path d="M2909 3132 c-53 -44 -13 -127 60 -127 73 0 105 62 60 119 -25 32 -84
36 -120 8z" />
        <path d="M3851 3074 c0 -11 3 -14 6 -6 3 7 2 16 -1 19 -3 4 -6 -2 -5 -13z" />
        <path
            d="M2370 2915 c0 -49 -8 -56 -28 -24 -20 32 -90 59 -152 59 -148 0 -250
-129 -238 -301 6 -77 35 -137 92 -187 46 -41 96 -55 172 -50 52 3 72 10 109
36 l45 32 0 -36 c0 -113 -119 -157 -266 -98 -36 14 -67 24 -70 22 -2 -3 -8
-26 -13 -52 -8 -44 -7 -48 16 -63 39 -26 121 -43 203 -43 131 0 197 31 239
115 25 48 26 55 32 320 3 148 4 275 2 281 -4 10 -95 34 -130 34 -9 0 -13 -14
-13 -45z m-62 -104 c61 -43 79 -146 39 -221 -55 -104 -182 -104 -239 0 -26 46
-20 145 10 188 45 62 129 77 190 33z" />
        <path
            d="M1618 2937 c-20 -8 -56 -28 -79 -46 -24 -17 -46 -31 -50 -31 -4 0
-10 16 -14 36 l-6 37 -46 -7 c-25 -3 -53 -6 -62 -6 -33 0 -40 -13 -30 -55 6
-22 14 -143 17 -270 l7 -230 65 0 65 0 5 200 5 199 44 30 c28 19 61 31 92 34
41 4 51 1 73 -21 29 -29 31 -45 31 -307 l0 -135 68 -3 68 -3 -3 245 c-3 229
-4 246 -24 272 -11 15 -32 36 -46 47 -33 24 -130 32 -180 14z" />
        <path
            d="M3245 2935 c-87 -31 -133 -125 -106 -216 12 -41 21 -49 119 -110 49
-31 62 -44 62 -64 0 -32 -33 -65 -67 -66 -16 -1 -41 -2 -58 -3 -28 -1 -30 -4
-33 -46 -3 -65 7 -75 72 -73 54 2 121 28 160 62 52 46 66 152 28 213 -12 18
-52 53 -89 78 -37 25 -69 53 -71 63 -6 30 25 54 79 61 l51 7 -7 37 c-11 60
-22 72 -63 72 -20 -1 -55 -7 -77 -15z" />
        <path
            d="M2897 2651 c4 -183 10 -278 17 -283 15 -10 114 -10 119 0 3 4 7 131
8 282 l3 274 -77 2 -76 1 6 -276z" />
        <path d="M578 2543 c7 -3 16 -2 19 1 4 3 -2 6 -13 5 -11 0 -14 -3 -6 -6z" />
        <path
            d="M4145 2375 c-16 -15 -25 -35 -24 -52 1 -27 1 -27 9 5 4 19 12 38 18
44 6 6 25 14 44 18 32 8 32 8 5 9 -17 1 -37 -8 -52 -24z" />
        <path
            d="M4241 2375 c9 -11 19 -27 22 -35 5 -13 6 -13 6 1 1 9 -9 24 -21 35
-23 19 -23 19 -7 -1z" />
        <path d="M4160 2320 c0 -52 15 -52 16 0 1 22 -2 40 -7 40 -5 0 -9 -18 -9 -40z" />
        <path
            d="M4206 2349 c3 -6 1 -15 -6 -19 -9 -6 -9 -12 1 -29 8 -11 18 -21 23
-21 6 0 5 5 -1 11 -7 7 -9 25 -6 40 3 19 1 29 -6 29 -7 0 -9 -5 -5 -11z" />
        <path
            d="M4255 2298 c-6 -13 -21 -28 -35 -35 -15 -8 -19 -13 -9 -13 19 0 63
44 58 59 -2 6 -9 1 -14 -11z" />
        <path
            d="M4144 2273 c11 -13 26 -23 35 -22 14 0 14 1 1 6 -8 3 -24 13 -35 22
-20 16 -20 16 -1 -6z" />
        <path
            d="M1241 2174 c-95 -48 -143 -136 -145 -264 -2 -188 91 -293 259 -293
75 0 123 18 178 67 l29 25 -23 30 c-27 37 -30 37 -55 10 -31 -34 -75 -52 -129
-52 -99 0 -164 73 -173 195 -3 44 -1 68 6 68 5 0 8 8 6 18 -3 9 8 36 23 60 36
55 94 84 155 78 55 -5 111 -32 102 -49 -4 -7 -4 -9 1 -5 4 4 14 0 21 -10 11
-15 13 -14 25 11 7 15 16 27 21 27 16 0 8 29 -14 51 -68 64 -194 79 -287 33z" />
        <path
            d="M2488 2135 c-3 -4 -4 -31 -1 -61 6 -58 -6 -84 -38 -84 -14 0 -19 -7
-19 -25 0 -20 5 -25 24 -25 13 0 27 -7 30 -16 4 -10 6 -71 5 -138 0 -67 2
-128 6 -138 8 -19 35 -28 92 -28 59 0 90 14 95 44 5 24 4 25 -41 19 -67 -8
-76 6 -78 130 -2 120 4 132 72 122 l44 -7 -1 37 -1 37 -49 -4 c-30 -3 -51 -1
-56 6 -3 6 -5 37 -4 69 3 50 1 57 -15 57 -10 0 -27 3 -38 6 -11 3 -23 2 -27
-1z" />
        <path
            d="M1704 2006 c-39 -17 -92 -81 -104 -126 -13 -47 -13 -99 1 -141 13
-37 56 -100 67 -97 4 1 21 -4 37 -11 64 -27 172 -12 228 31 16 12 17 18 7 39
l-12 25 -45 -23 c-57 -28 -117 -30 -160 -3 -39 23 -60 57 -44 73 5 5 67 15
136 21 79 8 129 17 134 24 14 22 -5 100 -32 136 -15 19 -41 42 -58 50 -39 19
-113 20 -155 2z m103 -56 c29 -11 63 -55 63 -84 0 -11 -16 -17 -62 -23 -112
-13 -133 -11 -136 15 -5 32 22 69 61 86 40 18 38 18 74 6z" />
        <path
            d="M2843 1999 c-79 -39 -120 -143 -99 -254 7 -35 68 -105 98 -111 7 -2
31 -8 53 -13 50 -13 133 2 170 31 21 16 25 26 20 47 -9 36 -9 36 -44 10 -47
-34 -128 -38 -174 -8 -39 26 -49 41 -41 63 7 19 33 24 98 23 30 -1 52 1 49 6
-2 4 20 7 49 7 81 0 96 27 59 112 -22 50 -53 85 -88 99 -40 15 -105 10 -150
-12z m138 -65 c26 -24 43 -64 31 -76 -13 -13 -175 -28 -186 -17 -20 19 -13 41
23 79 32 34 43 39 74 37 20 -2 46 -12 58 -23z" />
        <path
            d="M2172 1980 c-51 -37 -62 -37 -62 -4 0 26 -2 26 -45 21 -26 -2 -48 -6
-50 -8 -2 -2 1 -24 5 -49 5 -25 9 -107 10 -182 l0 -138 36 5 c20 2 38 6 40 8
2 1 4 60 5 130 1 140 4 146 78 177 82 34 111 -16 111 -192 l0 -124 38 1 37 0
0 130 c0 221 -15 255 -110 255 -42 0 -60 -6 -93 -30z" />
        <path
            d="M3192 2003 c-33 -4 -34 -4 -26 -46 4 -23 7 -108 6 -189 l-2 -147 38
2 c20 1 40 6 44 12 4 5 5 56 3 113 -4 82 -2 111 11 138 16 32 19 34 70 34 53
0 54 1 56 30 0 17 1 36 2 43 2 21 -38 19 -84 -6 -50 -26 -70 -25 -70 4 0 10
-3 18 -7 17 -5 0 -23 -3 -41 -5z" />
    </g>
</svg>